<svg width="286" height="47" viewBox="0 0 286 47" fill="none" xmlns="http://www.w3.org/2000/svg">
<g clip-path="url(#clip0_59_29)">
<path d="M23.6868 7.7694C24.7599 7.07174 25.8152 6.34487 26.9094 5.68222C29.5549 4.08039 32.2187 2.50915 34.874 0.923598C35.0702 0.819345 35.2556 0.696086 35.4277 0.555594C35.764 0.238135 36.1984 0.0445953 36.6593 0.00681084C37.1202 -0.0309736 37.5803 0.0892477 37.9638 0.347698C38.1819 0.449757 38.3745 0.599222 38.5274 0.785186C38.6804 0.97115 38.7899 1.18892 38.848 1.4226C38.906 1.65628 38.9112 1.89998 38.863 2.1359C38.8149 2.37183 38.7147 2.59403 38.5697 2.78629C38.4941 2.90758 38.4432 3.04264 38.42 3.18369C38.3967 3.32474 38.4017 3.46899 38.4344 3.60813C38.606 3.9897 38.6398 4.41902 38.5299 4.82272C38.4201 5.22642 38.1735 5.57945 37.8322 5.82148C36.75 6.6695 35.6265 7.46516 34.5187 8.2797C34.1039 8.58409 33.6836 8.88239 33.2658 9.18342L33.3755 9.33699C34.5474 8.62914 35.7144 7.9117 36.8945 7.21724C37.5654 6.8226 38.2582 6.46541 38.9415 6.09208L39.1808 5.97352C39.5886 5.73245 40.0699 5.64698 40.5358 5.73287C41.0017 5.81877 41.4208 6.07024 41.7159 6.4409C41.9544 6.85569 42.0188 7.34814 41.8949 7.81031C41.771 8.27248 41.4688 8.66666 41.0547 8.90643C39.3412 10.2543 37.5012 11.444 35.8124 12.8204C31.4997 16.336 27.2411 19.9167 22.9626 23.4739C22.8297 23.5784 22.7394 23.7278 22.7086 23.8941C23.1874 23.5684 23.6708 23.2497 24.1441 22.9161C27.8469 20.1698 31.7269 17.6706 35.7587 15.4351C37.0021 14.7941 38.2953 14.2546 39.6255 13.8218C40.0522 13.6358 40.532 13.6117 40.9752 13.7539C41.4184 13.8962 41.7946 14.1951 42.0333 14.5947C42.261 14.9977 42.347 15.4655 42.2778 15.9232C42.2086 16.3809 41.988 16.8023 41.6513 17.12C41.098 17.7186 40.4009 18.1825 39.7879 18.7288C39.6053 18.8921 39.3403 19.1536 39.3668 19.3327C39.4071 19.8601 39.2925 20.3878 39.0372 20.851C38.7818 21.3142 38.3967 21.6927 37.9291 21.9401C35.1261 24.1 32.2887 26.2158 29.4672 28.3522C29.2077 28.5486 28.9688 28.7724 28.7202 28.9835L28.8032 29.1256C29.4661 28.8497 30.1489 28.6129 30.7887 28.291C33.1335 27.111 35.4528 25.8801 37.8063 24.7178C38.6231 24.3169 39.4767 23.9958 40.3553 23.759C40.7198 23.6347 41.1172 23.6478 41.4728 23.7958C41.8284 23.9439 42.1177 24.2167 42.2863 24.563C42.4511 24.9224 42.4783 25.3299 42.3625 25.708C42.2467 26.0861 41.996 26.4085 41.6582 26.614C41.045 27.0777 40.3822 27.4758 39.7413 27.903L39.8443 28.0918C40.7928 27.6277 41.7398 27.16 42.6904 26.701C43.171 26.4691 43.6492 26.225 44.1459 26.035C44.5133 25.8251 44.9476 25.7656 45.3579 25.8689C45.7681 25.9722 46.1225 26.2303 46.3467 26.5891C46.5709 26.9479 46.6474 27.3795 46.5604 27.7935C46.4733 28.2076 46.2294 28.5718 45.8797 28.81C44.7969 29.6975 43.6525 30.5125 42.5103 31.3248C40.8957 32.4729 39.2582 33.5887 37.6334 34.7222C37.4121 34.8628 37.239 35.0678 37.1376 35.3097C38.1223 34.9532 39.117 34.6222 40.0889 34.2337C41.1847 33.7958 42.2537 33.2931 43.3459 32.8472C43.697 32.7091 44.0646 32.6176 44.4395 32.5749C44.7164 32.5198 45.0037 32.5543 45.2598 32.6733C45.5158 32.7923 45.7273 32.9897 45.8637 33.237C45.9992 33.4835 46.056 33.7656 46.0266 34.0453C45.9971 34.3251 45.8829 34.5891 45.6991 34.8021L45.3452 35.2902C45.5939 35.3804 45.798 35.4445 45.994 35.5278C46.2168 35.6087 46.4058 35.7624 46.5306 35.964C46.6553 36.1655 46.7085 36.4033 46.6816 36.6388C46.6989 36.8898 46.6198 37.1379 46.4606 37.3327C46.3013 37.5274 46.0739 37.6542 45.8245 37.6872C44.4696 37.9483 43.1792 38.4731 42.0266 39.2317C38.4929 40.9709 34.9824 42.7579 31.452 44.5044C30.7857 44.8135 30.1029 45.0857 29.4066 45.3196C29.0048 45.5014 28.5519 45.5367 28.1267 45.4191C27.7016 45.3016 27.3311 45.0387 27.0798 44.6762C26.8058 44.3262 26.5806 44.3594 26.2275 44.4925C24.4587 45.1605 22.6913 45.8357 20.8987 46.4348C20.383 46.5648 19.8464 46.5897 19.3208 46.5082C18.9832 46.4876 18.66 46.3635 18.3954 46.1529C18.1307 45.9422 17.9374 45.6551 17.8416 45.3307C17.7268 45.0131 17.7079 44.6688 17.7875 44.3406C17.867 44.0124 18.0414 43.7149 18.2889 43.4852C18.644 43.1713 18.9642 42.82 19.2439 42.4375C18.8304 42.6217 18.4062 42.7807 17.9734 42.9137C17.3234 43.1199 16.6496 43.2421 15.9686 43.2773C15.6479 43.2893 15.3302 43.2112 15.0515 43.052C14.7728 42.8928 14.5442 42.6588 14.3916 42.3765C14.2389 42.0941 14.1684 41.7747 14.1878 41.4544C14.2073 41.134 14.3161 40.8255 14.5018 40.5637L14.6763 40.2155C14.4072 40.2155 14.2045 40.1989 14.0056 40.2184C13.5795 40.3198 13.1327 40.2906 12.7234 40.1346C12.3141 39.9785 11.9612 39.7028 11.7108 39.3434C11.6253 39.2811 11.5253 39.2414 11.4203 39.2281C11.3153 39.2148 11.2087 39.2283 11.1103 39.2673C9.95148 39.9707 8.84595 40.7658 7.66493 41.4271C6.68655 41.9844 5.65903 42.4507 4.59535 42.8201C4.18608 42.953 3.74389 42.9434 3.34074 42.793C2.93759 42.6426 2.59721 42.3602 2.375 41.9917C2.17088 41.7452 1.89376 41.57 1.5836 41.4911C1.2609 41.4416 0.956826 41.3083 0.701733 41.1046C0.44664 40.9008 0.249444 40.6337 0.129822 40.3299C0.0102007 40.0262 -0.027663 39.6963 0.0200102 39.3734C0.0676834 39.0504 0.199226 38.7455 0.401511 38.4893C1.26817 37.4758 2.19459 36.515 3.17584 35.6121C4.95346 33.8322 6.73625 32.0575 8.52421 30.2879C8.68695 30.1398 8.79571 29.9416 8.83332 29.7248C8.55665 29.8672 8.2721 29.9936 7.98104 30.1036C7.40652 30.3319 6.80875 30.4966 6.1984 30.5949C5.91478 30.6407 5.62425 30.6155 5.35272 30.5217C5.08119 30.4279 4.83711 30.2683 4.64228 30.0572C4.44745 29.846 4.30792 29.59 4.23616 29.3118C4.16439 29.0336 4.16262 28.742 4.231 28.463C4.29948 28.0327 4.15155 27.8755 3.80318 27.7088C3.55575 27.6187 3.32957 27.4785 3.13876 27.297C2.94795 27.1155 2.7966 26.8966 2.69417 26.654C2.59174 26.4114 2.54043 26.1503 2.54344 25.8869C2.54644 25.6236 2.60371 25.3637 2.71165 25.1235C3.00428 24.2991 3.55751 23.5924 4.28761 23.1105C4.94311 22.6256 5.58049 22.1162 6.21377 21.6269C6.00165 21.3803 5.84411 21.0916 5.7515 20.7798C5.65889 20.4679 5.6333 20.1401 5.67642 19.8176C5.71955 19.4952 5.8304 19.1856 6.0017 18.9091C6.173 18.6325 6.40088 18.3954 6.67035 18.2132C8.09777 16.7534 9.37832 15.1398 10.8806 13.7657C12.9466 11.8757 15.1405 10.1226 17.3164 8.35641C20.6272 5.60987 24.2356 3.24334 28.0739 1.30119C28.4697 1.09824 28.8769 0.918202 29.2934 0.761968C29.5118 0.668321 29.7565 0.655353 29.9836 0.725382C30.2107 0.79541 30.4055 0.943876 30.5333 1.14428C30.6624 1.33008 30.7218 1.55544 30.7011 1.78072C30.6804 2.006 30.581 2.21678 30.4202 2.37598C30.2312 2.59435 30.0127 2.78532 29.771 2.94335C27.8649 4.37143 25.9571 5.79698 24.0476 7.21998C23.8819 7.34417 23.7358 7.49393 23.5805 7.63288L23.6868 7.7694Z" fill="#6639A6"/>
<path d="M61.9323 9.05188C61.9588 10.6178 61.9588 23.9144 61.9588 25.0026C61.9588 25.4007 62.0119 25.4803 62.41 25.4803C63.3124 25.4803 63.3124 25.5068 64.2147 25.4803C64.4005 25.4803 64.719 25.4803 64.8783 25.4007C65.064 25.3211 64.9579 19.0576 64.9579 18.7125C64.9579 18.341 65.701 18.4206 65.9133 18.4206C70.3455 18.4206 71.5664 15.2358 71.5664 12.5287C71.5664 10.0869 71.0887 5.5751 65.5683 5.5751C64.6129 5.5751 63.6309 5.60164 62.702 5.60164C62.4896 5.60164 62.2242 5.5751 62.0384 5.70781C61.8261 5.86705 61.9057 8.22913 61.9323 9.05188ZM64.9844 14.5192C64.9844 13.9353 64.9579 10.4585 64.9844 9.3969C64.9844 9.23766 64.9579 9.05188 64.9844 8.8661C65.064 8.57415 65.4091 8.57415 65.6745 8.60069C67.2138 8.70686 68.0896 10.0604 68.2223 11.4936C68.3285 12.5287 68.1958 14.068 67.4527 14.8907C66.9219 15.4481 66.2318 15.7931 65.3294 15.7931C65.1437 15.7931 64.9579 15.5808 64.9579 15.395C64.9579 15.1031 64.9579 14.8111 64.9844 14.5192ZM74.7393 20.0395H74.7127C74.7127 20.7031 74.6862 21.3931 74.7127 22.0831C74.7393 22.9324 74.7924 23.7817 74.8455 24.631C74.8455 24.923 74.9251 25.0026 75.1905 25.0557C75.7478 25.1884 76.2786 25.2149 76.836 25.2149C78.2691 25.1618 79.7023 25.268 81.1355 25.2149C81.7194 25.1884 81.9848 25.2414 82.5687 25.1353C83.0995 25.0291 83.2853 24.7372 83.2853 23.941C83.2322 23.4367 83.2587 23.2244 83.2587 22.614C83.2587 21.7381 82.6483 21.4462 82.1175 21.4727C81.7459 21.4993 79.9677 21.4462 79.2511 21.4462C78.0568 21.4727 78.2426 21.632 78.2426 20.3846C78.2426 19.376 78.2691 18.0756 78.2691 17.0405C78.2691 16.4832 78.3222 16.2974 78.853 16.2974H82.1706C82.7014 16.377 83.0729 16.0054 83.0729 15.4481C83.0729 14.8907 83.126 14.8642 83.126 14.3069L83.0464 13.5106C82.9933 13.0595 82.8341 12.9002 82.3829 12.9002C82.0909 12.9002 81.799 12.9268 81.5071 12.9533C80.3658 13.0329 79.835 12.8737 78.7203 12.9533C78.3488 12.9533 78.2957 12.9002 78.2691 12.5552C78.163 11.5201 78.2691 10.3789 78.3753 9.34382C78.4018 8.91918 78.508 8.83956 78.9061 8.81302L82.6483 8.78648C83.1526 8.7334 83.3118 8.75994 83.2853 8.25567C83.2322 7.486 83.3118 6.6898 83.2322 5.92013C83.1791 5.49548 83.0464 5.41586 82.5687 5.41586C81.7725 5.4424 81.5867 5.4424 80.7905 5.49548C79.9943 5.52202 76.8094 5.52202 76.0398 5.52202C74.9251 5.52202 74.8454 5.4424 74.8189 6.79596C74.7658 7.85757 74.7924 8.94572 74.7924 10.0339C74.7924 11.8917 74.6862 18.5533 74.7393 20.0395ZM97.7378 6.18553C97.8174 6.55709 97.7643 24.2329 97.7643 24.6841C97.7643 25.4803 97.4724 25.4538 96.9415 25.4538C96.1453 25.4538 95.0306 25.5865 94.7918 25.3211C94.5795 25.1353 90.6515 15.6604 90.0942 14.4661C90.0411 14.3599 89.9084 14.0945 89.8022 14.1476C89.6695 14.2007 89.7226 14.3865 89.7226 14.4926C89.6961 15.4215 89.8553 23.4367 89.8553 24.7106C89.8553 25.3476 89.8288 25.4538 89.2979 25.4538H87.9709C87.6259 25.4538 87.2013 25.4272 86.8562 25.4803C86.5908 25.4803 86.4581 25.4007 86.4316 25.1353V23.0386C86.4847 20.8092 86.4316 7.59216 86.4316 6.61017C86.4316 5.76089 86.6705 5.60164 87.5198 5.60164C88.1036 5.5751 88.6875 5.5751 89.2714 5.5751C89.4572 5.5751 89.5634 5.60164 89.6695 5.84051C90.3861 7.51254 93.4382 15.1827 93.916 16.1116C93.9956 16.2974 94.2875 17.0405 94.4468 17.1201H94.4733C94.5795 17.014 94.5529 16.4832 94.5529 16.3239C94.5529 15.9258 94.3406 6.61017 94.3406 6.42439C94.3406 6.15899 94.261 5.92013 94.3937 5.73435C94.4733 5.62818 94.8183 5.60164 94.951 5.5751C95.6942 5.52202 96.57 5.60164 97.3131 5.5751C97.6847 5.5751 97.6581 5.84051 97.7378 6.18553ZM100.99 20.0395H100.964C100.964 20.7031 100.937 21.3931 100.964 22.0831C100.99 22.9324 101.043 23.7817 101.096 24.631C101.096 24.923 101.176 25.0026 101.441 25.0557C101.999 25.1884 102.53 25.2149 103.087 25.2149C104.52 25.1618 105.953 25.268 107.386 25.2149C107.97 25.1884 108.236 25.2414 108.82 25.1353C109.35 25.0291 109.536 24.7372 109.536 23.941C109.483 23.4367 109.51 23.2244 109.51 22.614C109.51 21.7381 108.899 21.4462 108.368 21.4727C107.997 21.4993 106.219 21.4462 105.502 21.4462C104.308 21.4727 104.494 21.632 104.494 20.3846C104.494 19.376 104.52 18.0756 104.52 17.0405C104.52 16.4832 104.573 16.2974 105.104 16.2974H108.422C108.952 16.377 109.324 16.0054 109.324 15.4481C109.324 14.8907 109.377 14.8642 109.377 14.3069L109.297 13.5106C109.244 13.0595 109.085 12.9002 108.634 12.9002C108.342 12.9002 108.05 12.9268 107.758 12.9533C106.617 13.0329 106.086 12.8737 104.971 12.9533C104.6 12.9533 104.547 12.9002 104.52 12.5552C104.414 11.5201 104.52 10.3789 104.626 9.34382C104.653 8.91918 104.759 8.83956 105.157 8.81302L108.899 8.78648C109.404 8.7334 109.563 8.75994 109.536 8.25567C109.483 7.486 109.563 6.6898 109.483 5.92013C109.43 5.49548 109.297 5.41586 108.82 5.41586C108.023 5.4424 107.838 5.4424 107.041 5.49548C106.245 5.52202 103.06 5.52202 102.291 5.52202C101.176 5.52202 101.096 5.4424 101.07 6.79596C101.017 7.85757 101.043 8.94572 101.043 10.0339C101.043 11.8917 100.937 18.5533 100.99 20.0395ZM112.683 8.17605C112.656 9.82155 112.815 21.8443 112.789 22.7201C112.789 23.5429 112.789 24.3656 112.815 25.1884C112.815 25.3211 112.895 25.4538 113.028 25.4538C114.885 25.5334 116.717 25.3741 118.575 25.4007C119.185 25.4272 119.795 25.4007 120.379 25.4007C120.963 25.3741 121.016 25.1353 120.99 24.6576C120.963 23.9144 120.963 23.2509 120.963 22.5343C120.937 22.1628 120.724 22.0301 120.406 22.0301C119.318 22.0566 118.229 22.0035 117.141 22.0566C116.956 22.0831 116.77 22.0831 116.584 22.0831C116.266 22.0566 116.186 21.977 116.159 21.632V21.2339C116.08 19.031 116.239 16.7486 116.239 14.5457C116.212 12.6879 116.239 11.0159 116.212 9.37036C116.212 8.65378 116.212 7.93719 116.186 7.24714C116.159 6.8225 116.186 6.37131 116.08 5.94667C116.027 5.78743 115.947 5.5751 115.761 5.5751H113.266C112.842 5.5751 112.709 5.86705 112.683 6.29169V8.17605ZM127.799 18.6329C127.719 15.6073 127.745 12.396 127.772 9.3969C127.772 8.46799 127.719 7.45946 127.719 6.53055C127.719 5.52202 127.321 5.5751 126.79 5.54856C126.02 5.52202 125.675 5.52202 124.906 5.52202C124.401 5.49548 124.189 5.62819 124.189 6.13245C124.189 8.7334 124.109 16.085 124.136 17.1467C124.163 18.2083 124.269 23.0386 124.216 24.1002C124.189 24.4718 124.216 24.8433 124.242 25.2149C124.269 25.3476 124.348 25.4803 124.561 25.4803C125.436 25.4272 126.259 25.4272 127.135 25.4007C127.454 25.3741 127.719 25.2945 127.852 24.9495C127.878 24.7637 127.799 19.9068 127.799 18.6329ZM134.369 22.5874C134.395 23.4102 134.395 24.2329 134.422 25.0557C134.422 25.4272 134.448 25.4803 134.82 25.4803H137.208C137.713 25.4803 137.607 24.631 137.58 24.1798L137.66 9.31728C137.66 8.91918 137.792 8.78648 138.323 8.78648H140.659C141.216 8.78648 141.083 7.83103 141.083 7.16752C141.083 6.58363 141.296 5.5751 140.659 5.5751C140.207 5.5751 135.881 5.5751 134.103 5.60164C133.227 5.60164 132.511 5.5751 131.635 5.5751C130.971 5.5751 130.998 6.10591 130.998 7.27368C130.998 8.01681 130.971 8.75994 131.608 8.75994C131.98 8.75994 133.493 8.75994 133.917 8.78648C134.183 8.78648 134.369 8.8661 134.422 9.15804C134.422 9.23766 134.448 9.31728 134.448 9.3969C134.448 11.3078 134.316 20.1988 134.369 22.5874ZM147.919 18.6329C147.839 15.6073 147.866 12.396 147.892 9.3969C147.892 8.46799 147.839 7.45946 147.839 6.53055C147.839 5.52202 147.441 5.5751 146.91 5.54856C146.141 5.52202 145.796 5.52202 145.026 5.52202C144.522 5.49548 144.309 5.62819 144.309 6.13245C144.309 8.7334 144.23 16.085 144.256 17.1467C144.283 18.2083 144.389 23.0386 144.336 24.1002C144.309 24.4718 144.336 24.8433 144.362 25.2149C144.389 25.3476 144.469 25.4803 144.681 25.4803C145.557 25.4272 146.379 25.4272 147.255 25.4007C147.574 25.3741 147.839 25.2945 147.972 24.9495C147.998 24.7637 147.919 19.9068 147.919 18.6329ZM153.56 25.268C153.64 25.2945 153.878 25.2945 154.117 25.2945C154.648 25.2945 154.807 23.3836 154.86 22.9855C154.887 22.667 154.967 22.6405 155.232 22.5874C156.559 22.4282 157.222 22.5343 158.549 22.5609C158.841 22.5609 159.001 22.6936 159.08 22.9324L159.266 23.5429C159.425 23.994 159.558 24.5514 159.717 25.0026C159.823 25.3211 159.85 25.2945 160.168 25.2945C160.593 25.2945 162.132 25.2945 162.584 25.268C163.194 25.268 162.769 24.0206 162.69 23.8083C162.451 23.0651 162.398 22.2955 162.159 21.5523C162.053 21.2339 159.027 6.87558 158.894 6.07937C158.709 5.60164 158.868 5.5751 158.443 5.5751C157.541 5.5751 156.585 5.62818 155.657 5.5751C155.285 5.5751 155.312 5.68127 155.258 6.07937C155.205 6.45093 154.25 10.6708 153.878 12.4225C153.401 14.6253 152.976 16.7486 152.445 18.9249C152.259 19.6945 150.985 25.2414 151.145 25.268C151.224 25.3211 151.357 25.2945 151.463 25.2945C152.127 25.2945 152.737 25.2945 153.56 25.268ZM157.037 19.2433H156.479C155.736 19.2433 155.71 19.2433 155.895 18.4737C156.028 17.8898 156.745 14.7315 156.904 13.9618C156.93 13.9087 156.984 13.8557 157.01 13.8557C157.063 13.8557 157.116 13.9087 157.143 13.9353C157.249 14.2538 157.355 15.05 157.461 15.3685C157.7 16.377 157.859 17.2263 158.098 18.3144C158.337 19.2699 158.231 19.2699 157.753 19.2699C157.514 19.2699 157.276 19.2433 157.037 19.2433ZM177.355 6.18553C177.434 6.55709 177.381 24.2329 177.381 24.6841C177.381 25.4803 177.089 25.4538 176.558 25.4538C175.762 25.4538 174.647 25.5865 174.409 25.3211C174.196 25.1353 170.268 15.6604 169.711 14.4661C169.658 14.3599 169.525 14.0945 169.419 14.1476C169.286 14.2007 169.339 14.3865 169.339 14.4926C169.313 15.4215 169.472 23.4367 169.472 24.7106C169.472 25.3476 169.446 25.4538 168.915 25.4538H167.588C167.243 25.4538 166.818 25.4272 166.473 25.4803C166.208 25.4803 166.075 25.4007 166.048 25.1353V23.0386C166.101 20.8092 166.048 7.59216 166.048 6.61017C166.048 5.76089 166.287 5.60164 167.137 5.60164C167.72 5.5751 168.304 5.5751 168.888 5.5751C169.074 5.5751 169.18 5.60164 169.286 5.84051C170.003 7.51254 173.055 15.1827 173.533 16.1116C173.612 16.2974 173.904 17.0405 174.064 17.1201H174.09C174.196 17.014 174.17 16.4832 174.17 16.3239C174.17 15.9258 173.957 6.61017 173.957 6.42439C173.957 6.15899 173.878 5.92013 174.01 5.73435C174.09 5.62818 174.435 5.60164 174.568 5.5751C175.311 5.52202 176.187 5.60164 176.93 5.5751C177.301 5.5751 177.275 5.84051 177.355 6.18553ZM187.734 7.6187C187.734 8.89264 187.681 22.5874 187.734 23.8083C187.761 24.1002 187.761 24.3922 187.761 24.6841C187.761 24.8964 187.894 25.0291 188.079 25.1087C188.239 25.1618 188.451 25.2149 188.61 25.2149C189.38 25.1353 190.203 25.2149 190.999 25.1884C192.379 25.2945 193.626 24.976 194.821 24.3391C195.935 23.7021 196.546 22.5609 196.97 21.3666C197.315 20.358 197.262 19.1637 197.077 18.1286C196.917 17.1997 196.493 16.2974 195.935 15.5542C195.856 15.4481 194.715 14.7315 194.768 14.6784C195.458 13.6964 196.44 12.8737 196.572 11.6528C196.679 10.5912 196.44 9.50306 196.068 8.52107C195.829 7.88411 195.511 7.27368 195.006 6.79596C194.157 5.99975 192.883 5.65473 191.769 5.54856C190.627 5.4424 189.566 5.52202 188.425 5.46894C188.026 5.46894 187.841 5.62819 187.841 6.05283C187.841 6.61017 187.734 7.06136 187.734 7.6187ZM190.999 12.449C190.972 12.1571 190.999 9.82155 190.946 8.94572C190.919 8.62723 191.105 8.46799 191.45 8.54761C191.715 8.60069 191.928 8.62723 192.14 8.78648C192.804 9.29074 193.308 9.90117 193.334 10.7505C193.334 11.1751 193.334 11.5997 193.175 11.9978C192.989 12.4756 192.724 12.8471 192.246 13.086C191.928 13.2452 191.636 13.431 191.317 13.5637C191.158 13.6168 190.999 13.5372 190.972 13.3779C190.972 13.0595 190.999 12.449 190.999 12.449ZM193.653 19.4822C193.653 19.6149 193.626 19.8538 193.626 20.0926C193.6 20.8888 192.565 21.8974 191.37 21.9239C191.291 21.9239 191.158 21.8443 191.132 21.7647C191.079 21.6054 191.025 21.4196 191.025 21.2339C190.999 20.4111 191.025 19.6149 191.025 18.7391C191.105 18.1817 191.052 17.5978 191.052 17.014C191.079 16.5628 191.185 16.4832 191.609 16.4035C192.246 16.3239 192.83 16.5893 193.122 17.0936C193.467 17.704 193.6 18.3675 193.653 19.0576V19.4822ZM200.409 20.0395H200.382C200.382 20.7031 200.356 21.3931 200.382 22.0831C200.409 22.9324 200.462 23.7817 200.515 24.631C200.515 24.923 200.595 25.0026 200.86 25.0557C201.417 25.1884 201.948 25.2149 202.505 25.2149C203.939 25.1618 205.372 25.268 206.805 25.2149C207.389 25.1884 207.654 25.2414 208.238 25.1353C208.769 25.0291 208.955 24.7372 208.955 23.941C208.902 23.4367 208.928 23.2244 208.928 22.614C208.928 21.7381 208.318 21.4462 207.787 21.4727C207.415 21.4993 205.637 21.4462 204.921 21.4462C203.726 21.4727 203.912 21.632 203.912 20.3846C203.912 19.376 203.939 18.0756 203.939 17.0405C203.939 16.4832 203.992 16.2974 204.522 16.2974H207.84C208.371 16.377 208.742 16.0054 208.742 15.4481C208.742 14.8907 208.795 14.8642 208.795 14.3069L208.716 13.5106C208.663 13.0595 208.504 12.9002 208.052 12.9002C207.76 12.9002 207.468 12.9268 207.177 12.9533C206.035 13.0329 205.504 12.8737 204.39 12.9533C204.018 12.9533 203.965 12.9002 203.939 12.5552C203.832 11.5201 203.939 10.3789 204.045 9.34382C204.071 8.91918 204.177 8.83956 204.576 8.81302L208.318 8.78648C208.822 8.7334 208.981 8.75994 208.955 8.25567C208.902 7.486 208.981 6.6898 208.902 5.92013C208.849 5.49548 208.716 5.41586 208.238 5.41586C207.442 5.4424 207.256 5.4424 206.46 5.49548C205.664 5.52202 202.479 5.52202 201.709 5.52202C200.595 5.52202 200.515 5.4424 200.488 6.79596C200.435 7.85757 200.462 8.94572 200.462 10.0339C200.462 11.8917 200.356 18.5533 200.409 20.0395ZM215.392 23.4898C215.392 22.7997 215.392 18.4471 215.419 18.1021C215.445 18.0225 215.498 17.8632 215.604 17.8632C215.711 17.8632 215.764 17.9163 215.79 17.9959C216.852 20.0661 217.781 22.1362 218.736 24.1533C218.869 24.4452 219.161 25.2945 219.24 25.3741C219.347 25.5334 219.532 25.4803 219.692 25.4803L222.611 25.5068C222.956 25.5068 223.036 25.2945 222.956 25.0026C222.744 24.2064 221.231 21.3931 220.886 20.7031C220.647 20.1722 219.055 17.0936 219.002 16.8547C218.948 16.7486 219.347 16.5628 219.4 16.4832C220.674 15.3419 221.815 14.1742 222.054 12.396C222.319 10.6443 221.921 8.7334 220.78 7.32676C219.904 6.29169 218.763 5.68127 217.409 5.60164C216.586 5.54856 215.79 5.62818 214.967 5.60164C214.251 5.5751 213.747 5.5751 212.844 5.5751C212.42 5.5751 212.154 5.81397 212.128 6.26515V6.58363C212.075 8.62723 212.128 10.6708 212.154 12.6879C212.154 15.7666 212.101 23.8879 212.101 25.0557C212.101 25.4007 212.154 25.4803 212.473 25.4803C212.658 25.4803 212.871 25.5068 213.057 25.5068C213.8 25.5068 214.251 25.4803 215.021 25.4803C215.604 25.4803 215.392 24.5249 215.392 23.4898ZM215.392 13.1391L215.419 10.4585C215.445 10.0604 215.312 9.2642 215.684 8.97226C216.188 8.60069 217.223 8.97226 217.675 9.29074C219.002 10.1931 218.895 12.4225 218.179 13.6699C217.834 14.2538 217.25 14.5988 216.586 14.7846C216.188 14.8907 215.445 15.0234 215.419 14.3865C215.419 13.9618 215.392 13.1391 215.392 13.1391ZM231.543 5.4424C231.039 5.46894 230.535 5.54856 230.03 5.70781C228.942 6.07937 227.96 6.8225 227.297 7.77795C226.713 8.65377 226.474 9.68885 226.394 10.7239C226.341 11.5201 226.421 12.3429 226.792 13.0595C227.191 13.8291 227.881 14.4926 228.464 15.1296C228.995 15.6869 229.526 16.2443 230.11 16.7486C230.641 17.2528 231.251 17.6509 231.782 18.1817C232.552 18.9514 232.844 20.7031 232.286 21.6585C231.623 22.7201 230.057 22.8794 229.022 22.5343C228.491 22.3486 228.013 21.9504 227.562 21.632C227.297 21.4462 226.978 21.3666 226.792 21.685C226.686 21.8443 226.633 22.0301 226.58 22.1893C226.394 22.8528 226.155 23.4632 226.129 24.1798C226.102 25.0026 227.668 25.2414 228.252 25.3741C230.853 25.9846 233.985 25.5068 235.338 22.9324C235.604 22.4016 235.79 21.8443 235.896 21.2604C235.922 21.0481 235.949 20.8623 235.949 20.65C236.055 18.9514 235.365 17.5182 234.33 16.2443C233.215 14.8642 231.809 13.9087 230.508 12.7144C229.712 11.9713 229.42 10.8035 229.659 9.74193C229.898 8.60069 231.198 8.30875 232.18 8.60069C232.472 8.68032 232.711 8.81302 232.976 8.97226C233.136 9.05188 233.295 9.15804 233.507 9.15804C233.879 9.18458 233.932 8.89264 234.011 8.60069C234.197 7.93719 234.516 7.40638 234.648 6.76942C234.781 6.05283 234.197 5.92013 233.613 5.73435C232.923 5.54856 232.26 5.41586 231.543 5.4424ZM241.537 25.268C241.617 25.2945 241.855 25.2945 242.094 25.2945C242.625 25.2945 242.784 23.3836 242.837 22.9855C242.864 22.667 242.944 22.6405 243.209 22.5874C244.536 22.4282 245.199 22.5343 246.526 22.5609C246.818 22.5609 246.978 22.6936 247.057 22.9324L247.243 23.5429C247.402 23.994 247.535 24.5514 247.694 25.0026C247.8 25.3211 247.827 25.2945 248.145 25.2945C248.57 25.2945 250.109 25.2945 250.561 25.268C251.171 25.268 250.746 24.0206 250.667 23.8083C250.428 23.0651 250.375 22.2955 250.136 21.5523C250.03 21.2339 247.004 6.87558 246.871 6.07937C246.686 5.60164 246.845 5.5751 246.42 5.5751C245.518 5.5751 244.562 5.62818 243.634 5.5751C243.262 5.5751 243.289 5.68127 243.235 6.07937C243.182 6.45093 242.227 10.6708 241.855 12.4225C241.378 14.6253 240.953 16.7486 240.422 18.9249C240.236 19.6945 238.962 25.2414 239.122 25.268C239.201 25.3211 239.334 25.2945 239.44 25.2945C240.104 25.2945 240.714 25.2945 241.537 25.268ZM245.014 19.2433H244.456C243.713 19.2433 243.687 19.2433 243.872 18.4737C244.005 17.8898 244.722 14.7315 244.881 13.9618C244.907 13.9087 244.961 13.8557 244.987 13.8557C245.04 13.8557 245.093 13.9087 245.12 13.9353C245.226 14.2538 245.332 15.05 245.438 15.3685C245.677 16.377 245.836 17.2263 246.075 18.3144C246.314 19.2699 246.208 19.2699 245.73 19.2699C245.491 19.2699 245.253 19.2433 245.014 19.2433ZM257.874 5.60164C257.608 5.60164 257.343 5.62818 257.078 5.62818C256.679 5.62818 256.202 5.54856 256.122 6.07937C255.857 8.33529 255.618 10.8301 255.352 13.086C254.901 16.8016 254.477 20.6234 254.052 24.3391C253.999 24.8433 253.946 25.3211 254.503 25.4272C255.352 25.4803 255.989 25.4803 256.706 25.4538C256.971 25.4803 257.263 25.5068 257.343 25.1884C257.396 25.0557 257.396 24.923 257.396 24.7903C257.449 24.1798 258.245 16.5362 258.564 16.5362C259.068 16.5362 260.395 22.7467 261.032 25.0291C261.112 25.3476 261.271 25.4803 261.589 25.4538C262.253 25.4007 262.89 25.4538 263.553 25.4538C264.217 25.4538 264.084 25.0291 264.217 24.4718C264.376 23.8613 265.915 16.5097 266.287 16.5097C266.712 16.5097 267.587 25.0291 267.667 25.2149C267.826 25.5865 268.278 25.4272 268.596 25.4272C269.074 25.4272 269.525 25.4803 270.135 25.4272C270.587 25.3741 271.038 25.5334 271.064 24.9495C271.064 24.8168 271.011 24.6841 270.985 24.5514C270.878 23.8879 270.746 23.0917 270.613 22.4282C270.427 21.0481 270.162 19.6945 269.976 18.3144C269.711 16.1381 269.445 13.9618 269.206 11.7855C269.021 9.92771 268.755 7.83103 268.596 5.97321C268.543 5.36278 267.853 5.5751 267.428 5.5751H265.597C265.305 5.5751 265.172 6.13245 265.119 6.42439C264.96 7.16752 263.129 16.7486 262.518 16.7486C261.908 16.7486 259.944 7.99027 259.599 6.07937C259.519 5.65473 259.227 5.52202 258.829 5.52202L257.874 5.60164ZM276.652 25.268C276.732 25.2945 276.971 25.2945 277.21 25.2945C277.74 25.2945 277.9 23.3836 277.953 22.9855C277.979 22.667 278.059 22.6405 278.324 22.5874C279.651 22.4282 280.315 22.5343 281.642 22.5609C281.934 22.5609 282.093 22.6936 282.173 22.9324L282.358 23.5429C282.518 23.994 282.65 24.5514 282.81 25.0026C282.916 25.3211 282.942 25.2945 283.261 25.2945C283.685 25.2945 285.225 25.2945 285.676 25.268C286.286 25.268 285.862 24.0206 285.782 23.8083C285.543 23.0651 285.49 22.2955 285.251 21.5523C285.145 21.2339 282.12 6.87558 281.987 6.07937C281.801 5.60164 281.96 5.5751 281.536 5.5751C280.633 5.5751 279.678 5.62818 278.749 5.5751C278.377 5.5751 278.404 5.68127 278.351 6.07937C278.298 6.45093 277.342 10.6708 276.971 12.4225C276.493 14.6253 276.068 16.7486 275.538 18.9249C275.352 19.6945 274.078 25.2414 274.237 25.268C274.317 25.3211 274.449 25.2945 274.556 25.2945C275.219 25.2945 275.83 25.2945 276.652 25.268ZM280.129 19.2433H279.572C278.829 19.2433 278.802 19.2433 278.988 18.4737C279.121 17.8898 279.837 14.7315 279.996 13.9618C280.023 13.9087 280.076 13.8557 280.103 13.8557C280.156 13.8557 280.209 13.9087 280.235 13.9353C280.341 14.2538 280.448 15.05 280.554 15.3685C280.793 16.377 280.952 17.2263 281.191 18.3144C281.43 19.2699 281.323 19.2699 280.846 19.2699C280.607 19.2699 280.368 19.2433 280.129 19.2433Z" fill="#521262"/>
<path d="M63.8674 33.2785C63.6837 33.2882 63.5001 33.3172 63.3164 33.3752C62.9202 33.5105 62.5625 33.7811 62.3209 34.1291C62.1083 34.448 62.0213 34.825 61.9923 35.2019C61.973 35.4919 62.0019 35.7915 62.1373 36.0525C62.2822 36.3328 62.5335 36.5744 62.7462 36.8064C62.9395 37.0094 63.1328 37.2123 63.3454 37.396C63.5387 37.5796 63.7611 37.7246 63.9544 37.9179C64.2347 38.1982 64.341 38.8361 64.138 39.1841C63.8964 39.5707 63.3261 39.6287 62.9492 39.503C62.7558 39.4354 62.5819 39.2904 62.4176 39.1744C62.3209 39.1068 62.2049 39.0778 62.1373 39.1937C62.0986 39.2517 62.0793 39.3194 62.0599 39.3774C61.9923 39.619 61.9053 39.8413 61.8956 40.1023C61.886 40.4019 62.4562 40.4889 62.6689 40.5372C63.6161 40.7595 64.7566 40.5856 65.2495 39.648C65.3462 39.4547 65.4138 39.2517 65.4525 39.0391C65.4622 38.9618 65.4718 38.8941 65.4718 38.8168C65.5105 38.1982 65.2592 37.6763 64.8822 37.2123C64.4763 36.7097 63.964 36.3618 63.4904 35.9268C63.2005 35.6562 63.0941 35.2309 63.1811 34.8443C63.2681 34.4287 63.7417 34.3224 64.0993 34.4287C64.2057 34.4577 64.2926 34.506 64.3893 34.564C64.4473 34.593 64.5053 34.6317 64.5826 34.6317C64.7179 34.6413 64.7373 34.535 64.7663 34.4287C64.8339 34.1871 64.9499 33.9938 64.9982 33.7618C65.0465 33.5008 64.8339 33.4525 64.6213 33.3848C64.37 33.3172 64.1283 33.2689 63.8674 33.2785ZM70.9304 38.5945H70.9207C70.9207 38.8361 70.911 39.0874 70.9207 39.3387C70.9304 39.648 70.9497 39.9573 70.969 40.2666C70.969 40.3729 70.998 40.4019 71.0947 40.4213C71.2976 40.4696 71.491 40.4792 71.6939 40.4792C72.2159 40.4599 72.7378 40.4986 73.2597 40.4792C73.4724 40.4696 73.569 40.4889 73.7817 40.4502C73.975 40.4116 74.0426 40.3053 74.0426 40.0153C74.0233 39.8317 74.033 39.7543 74.033 39.532C74.033 39.2131 73.8106 39.1068 73.6173 39.1164C73.482 39.1261 72.8344 39.1068 72.5735 39.1068C72.1385 39.1164 72.2062 39.1744 72.2062 38.7201C72.2062 38.3529 72.2159 37.8793 72.2159 37.5023C72.2159 37.2993 72.2352 37.2317 72.4285 37.2317H73.6367C73.83 37.2607 73.9653 37.1254 73.9653 36.9224C73.9653 36.7194 73.9846 36.7097 73.9846 36.5068L73.9556 36.2168C73.9363 36.0525 73.8783 35.9945 73.714 35.9945C73.6077 35.9945 73.5014 36.0042 73.395 36.0138C72.9794 36.0428 72.7861 35.9848 72.3802 36.0138C72.2449 36.0138 72.2255 35.9945 72.2159 35.8689C72.1772 35.4919 72.2159 35.0763 72.2545 34.6993C72.2642 34.5447 72.3028 34.5157 72.4478 34.506L73.8106 34.4964C73.9943 34.477 74.0523 34.4867 74.0426 34.3031C74.0233 34.0228 74.0523 33.7328 74.0233 33.4525C74.004 33.2979 73.9556 33.2689 73.7817 33.2689C73.4917 33.2785 73.424 33.2785 73.1341 33.2979C72.8441 33.3075 71.6843 33.3075 71.404 33.3075C70.998 33.3075 70.969 33.2785 70.9594 33.7715C70.94 34.1581 70.9497 34.5544 70.9497 34.9506C70.9497 35.6272 70.911 38.0532 70.9304 38.5945ZM79.4915 34.2741C79.4818 34.8733 79.5398 39.2517 79.5301 39.5707C79.5301 39.8703 79.5301 40.17 79.5398 40.4696C79.5398 40.5179 79.5688 40.5662 79.6171 40.5662C80.2937 40.5952 80.9606 40.5372 81.6372 40.5469C81.8595 40.5566 82.0818 40.5469 82.2944 40.5469C82.5071 40.5372 82.5264 40.4502 82.5168 40.2763C82.5071 40.0056 82.5071 39.764 82.5071 39.503C82.4974 39.3677 82.4201 39.3194 82.3041 39.3194C81.9078 39.3291 81.5116 39.3097 81.1153 39.3291C81.0476 39.3387 80.98 39.3387 80.9123 39.3387C80.7963 39.3291 80.7673 39.3001 80.7576 39.1744V39.0294C80.7287 38.2272 80.7866 37.396 80.7866 36.5938C80.777 35.9172 80.7866 35.3083 80.777 34.709C80.777 34.448 80.777 34.1871 80.7673 33.9358C80.7576 33.7811 80.7673 33.6168 80.7287 33.4622C80.7093 33.4042 80.6803 33.3269 80.6127 33.3269H79.7041C79.5495 33.3269 79.5011 33.4332 79.4915 33.5878V34.2741ZM88.8548 40.4986C88.8838 40.5082 88.9708 40.5082 89.0578 40.5082C89.2511 40.5082 89.3091 39.8123 89.3284 39.6674C89.3381 39.5514 89.3671 39.5417 89.4638 39.5224C89.947 39.4644 90.1887 39.503 90.6719 39.5127C90.7782 39.5127 90.8362 39.561 90.8652 39.648L90.9329 39.8703C90.9909 40.0346 91.0392 40.2376 91.0972 40.4019C91.1359 40.5179 91.1455 40.5082 91.2615 40.5082C91.4162 40.5082 91.9768 40.5082 92.1411 40.4986C92.3634 40.4986 92.2087 40.0443 92.1797 39.967C92.0927 39.6963 92.0734 39.4161 91.9864 39.1454C91.9478 39.0294 90.8459 33.8005 90.7976 33.5105C90.7299 33.3365 90.7879 33.3269 90.6333 33.3269C90.3046 33.3269 89.9567 33.3462 89.6184 33.3269C89.4831 33.3269 89.4928 33.3655 89.4734 33.5105C89.4541 33.6458 89.1061 35.1826 88.9708 35.8205C88.7968 36.6228 88.6422 37.396 88.4489 38.1885C88.3812 38.4688 87.9173 40.4889 87.9753 40.4986C88.0043 40.5179 88.0526 40.5082 88.0913 40.5082C88.3329 40.5082 88.5552 40.5082 88.8548 40.4986ZM90.121 38.3045H89.918C89.6474 38.3045 89.6377 38.3045 89.7054 38.0242C89.7537 37.8116 90.0147 36.6614 90.0727 36.3811C90.0823 36.3618 90.1017 36.3425 90.1113 36.3425C90.1307 36.3425 90.15 36.3618 90.1597 36.3715C90.1983 36.4874 90.237 36.7774 90.2756 36.8934C90.3626 37.2607 90.4206 37.57 90.5076 37.9662C90.5946 38.3142 90.5559 38.3142 90.382 38.3142C90.295 38.3142 90.208 38.3045 90.121 38.3045ZM97.7059 34.2741C97.6963 34.8733 97.7542 39.2517 97.7446 39.5707C97.7446 39.8703 97.7446 40.17 97.7542 40.4696C97.7542 40.5179 97.7832 40.5662 97.8316 40.5662C98.5082 40.5952 99.1751 40.5372 99.8516 40.5469C100.074 40.5566 100.296 40.5469 100.509 40.5469C100.722 40.5372 100.741 40.4502 100.731 40.2763C100.722 40.0056 100.722 39.764 100.722 39.503C100.712 39.3677 100.635 39.3194 100.519 39.3194C100.122 39.3291 99.726 39.3097 99.3297 39.3291C99.2621 39.3387 99.1944 39.3387 99.1267 39.3387C99.0108 39.3291 98.9818 39.3001 98.9721 39.1744V39.0294C98.9431 38.2272 99.0011 37.396 99.0011 36.5938C98.9914 35.9172 99.0011 35.3083 98.9914 34.709C98.9914 34.448 98.9914 34.1871 98.9818 33.9358C98.9721 33.7811 98.9818 33.6168 98.9431 33.4622C98.9238 33.4042 98.8948 33.3269 98.8271 33.3269H97.9186C97.7639 33.3269 97.7156 33.4332 97.7059 33.5878V34.2741ZM106.18 34.912C106.18 35.8882 106.19 36.8741 106.209 37.8406C106.219 38.4302 106.209 39.0971 106.489 39.6384C106.847 40.3343 107.64 40.6436 108.403 40.5952C108.925 40.5566 109.408 40.4213 109.785 40.0346C110.423 39.3484 110.298 38.2755 110.307 37.396C110.327 36.1298 110.356 34.9506 110.356 33.6748C110.356 33.4622 110.288 33.3462 110.075 33.3365C109.814 33.3269 109.553 33.3365 109.292 33.3558C109.186 33.3558 109.099 33.4525 109.099 33.5685C109.109 34.4964 109.128 35.4339 109.118 36.3715C109.109 37.1737 109.215 38.0629 108.915 38.8265C108.799 39.1068 108.538 39.3194 108.229 39.3194C107.456 39.3001 107.485 38.3819 107.456 37.8406C107.398 36.6614 107.485 35.4532 107.514 34.2741C107.514 34.0518 107.514 33.8295 107.524 33.6071C107.533 33.4912 107.553 33.3462 107.398 33.3365H107.224C106.982 33.3558 106.741 33.3269 106.499 33.3365C106.267 33.3558 106.19 33.4235 106.19 33.6555C106.19 34.0711 106.18 34.4964 106.18 34.912ZM122.713 34.0711C122.713 34.535 122.693 39.5224 122.713 39.967C122.722 40.0733 122.722 40.1796 122.722 40.2859C122.722 40.3633 122.771 40.4116 122.838 40.4406C122.896 40.4599 122.974 40.4792 123.032 40.4792C123.312 40.4502 123.612 40.4792 123.902 40.4696C124.404 40.5082 124.858 40.3923 125.293 40.1603C125.699 39.9283 125.922 39.5127 126.076 39.0778C126.202 38.7105 126.183 38.2755 126.115 37.8986C126.057 37.5603 125.902 37.2317 125.699 36.961C125.67 36.9224 125.255 36.6614 125.274 36.6421C125.525 36.2845 125.883 35.9848 125.931 35.5402C125.97 35.1536 125.883 34.7573 125.748 34.3997C125.661 34.1677 125.545 33.9454 125.361 33.7715C125.052 33.4815 124.588 33.3558 124.182 33.3172C123.766 33.2785 123.38 33.3075 122.964 33.2882C122.819 33.2882 122.751 33.3462 122.751 33.5008C122.751 33.7038 122.713 33.8681 122.713 34.0711ZM123.902 35.8302C123.892 35.7239 123.902 34.8733 123.882 34.5544C123.873 34.4384 123.94 34.3804 124.066 34.4094C124.163 34.4287 124.24 34.4384 124.317 34.4964C124.559 34.68 124.742 34.9023 124.752 35.2116C124.752 35.3663 124.752 35.5209 124.694 35.6659C124.626 35.8399 124.53 35.9752 124.356 36.0622C124.24 36.1202 124.134 36.1878 124.018 36.2361C123.96 36.2555 123.902 36.2265 123.892 36.1685C123.892 36.0525 123.902 35.8302 123.902 35.8302ZM124.868 38.3915C124.868 38.4398 124.858 38.5268 124.858 38.6138C124.849 38.9038 124.472 39.2711 124.037 39.2807C124.008 39.2807 123.96 39.2517 123.95 39.2227C123.931 39.1648 123.911 39.0971 123.911 39.0294C123.902 38.7298 123.911 38.4398 123.911 38.1209C123.94 37.9179 123.921 37.7053 123.921 37.4926C123.931 37.3283 123.969 37.2993 124.124 37.2703C124.356 37.2413 124.568 37.338 124.675 37.5216C124.8 37.7439 124.849 37.9856 124.868 38.2369V38.3915ZM131.631 38.5945H131.622C131.622 38.8361 131.612 39.0874 131.622 39.3387C131.631 39.648 131.651 39.9573 131.67 40.2666C131.67 40.3729 131.699 40.4019 131.796 40.4213C131.999 40.4696 132.192 40.4792 132.395 40.4792C132.917 40.4599 133.439 40.4986 133.961 40.4792C134.173 40.4696 134.27 40.4889 134.483 40.4502C134.676 40.4116 134.744 40.3053 134.744 40.0153C134.724 39.8317 134.734 39.7543 134.734 39.532C134.734 39.2131 134.512 39.1068 134.318 39.1164C134.183 39.1261 133.536 39.1068 133.275 39.1068C132.84 39.1164 132.907 39.1744 132.907 38.7201C132.907 38.3529 132.917 37.8793 132.917 37.5023C132.917 37.2993 132.936 37.2317 133.13 37.2317H134.338C134.531 37.2607 134.666 37.1254 134.666 36.9224C134.666 36.7194 134.686 36.7097 134.686 36.5068L134.657 36.2168C134.637 36.0525 134.579 35.9945 134.415 35.9945C134.309 35.9945 134.202 36.0042 134.096 36.0138C133.681 36.0428 133.487 35.9848 133.081 36.0138C132.946 36.0138 132.927 35.9945 132.917 35.8689C132.878 35.4919 132.917 35.0763 132.956 34.6993C132.965 34.5447 133.004 34.5157 133.149 34.506L134.512 34.4964C134.695 34.477 134.753 34.4867 134.744 34.3031C134.724 34.0228 134.753 33.7328 134.724 33.4525C134.705 33.2979 134.657 33.2689 134.483 33.2689C134.193 33.2785 134.125 33.2785 133.835 33.2979C133.545 33.3075 132.385 33.3075 132.105 33.3075C131.699 33.3075 131.67 33.2785 131.66 33.7715C131.641 34.1581 131.651 34.5544 131.651 34.9506C131.651 35.6272 131.612 38.0532 131.631 38.5945ZM141.391 39.851C141.391 39.5997 141.391 38.0146 141.401 37.8889C141.41 37.8599 141.43 37.8019 141.468 37.8019C141.507 37.8019 141.526 37.8213 141.536 37.8503C141.923 38.6042 142.261 39.3581 142.609 40.0926C142.657 40.1989 142.764 40.5082 142.793 40.5372C142.831 40.5952 142.899 40.5759 142.957 40.5759L144.02 40.5856C144.146 40.5856 144.175 40.5082 144.146 40.4019C144.068 40.112 143.517 39.0874 143.392 38.8361C143.305 38.6428 142.725 37.5216 142.706 37.4346C142.686 37.396 142.831 37.3283 142.851 37.2993C143.315 36.8837 143.73 36.4584 143.817 35.8109C143.914 35.1729 143.769 34.477 143.353 33.9648C143.034 33.5878 142.619 33.3655 142.126 33.3365C141.826 33.3172 141.536 33.3462 141.236 33.3365C140.975 33.3269 140.792 33.3269 140.463 33.3269C140.309 33.3269 140.212 33.4138 140.202 33.5782V33.6941C140.183 34.4384 140.202 35.1826 140.212 35.9172C140.212 37.0384 140.193 39.996 140.193 40.4213C140.193 40.5469 140.212 40.5759 140.328 40.5759C140.396 40.5759 140.473 40.5856 140.541 40.5856C140.811 40.5856 140.975 40.5759 141.256 40.5759C141.468 40.5759 141.391 40.2279 141.391 39.851ZM141.391 36.0815L141.401 35.1053C141.41 34.9603 141.362 34.6703 141.497 34.564C141.681 34.4287 142.058 34.564 142.222 34.68C142.706 35.0086 142.667 35.8205 142.406 36.2748C142.28 36.4874 142.068 36.6131 141.826 36.6807C141.681 36.7194 141.41 36.7677 141.401 36.5358C141.401 36.3811 141.391 36.0815 141.391 36.0815ZM149.614 34.593C149.624 35.1633 149.624 40.0056 149.624 40.4019C149.624 40.5469 149.643 40.5759 149.788 40.5759C150.117 40.5759 150.117 40.5856 150.445 40.5759C150.513 40.5759 150.629 40.5759 150.687 40.5469C150.754 40.5179 150.716 38.2369 150.716 38.1112C150.716 37.9759 150.986 38.0049 151.064 38.0049C152.678 38.0049 153.122 36.8451 153.122 35.8592C153.122 34.97 152.948 33.3269 150.938 33.3269C150.59 33.3269 150.233 33.3365 149.894 33.3365C149.817 33.3365 149.72 33.3269 149.653 33.3752C149.575 33.4332 149.604 34.2934 149.614 34.593ZM150.725 36.5841C150.725 36.3715 150.716 35.1053 150.725 34.7187C150.725 34.6607 150.716 34.593 150.725 34.5254C150.754 34.419 150.88 34.419 150.977 34.4287C151.537 34.4674 151.856 34.9603 151.905 35.4822C151.943 35.8592 151.895 36.4198 151.624 36.7194C151.431 36.9224 151.18 37.048 150.851 37.048C150.783 37.048 150.716 36.9707 150.716 36.903C150.716 36.7967 150.716 36.6904 150.725 36.5841ZM159.905 38.0822C159.876 36.9804 159.886 35.8109 159.895 34.7187C159.895 34.3804 159.876 34.0131 159.876 33.6748C159.876 33.3075 159.731 33.3269 159.538 33.3172C159.258 33.3075 159.132 33.3075 158.852 33.3075C158.668 33.2979 158.591 33.3462 158.591 33.5298C158.591 34.477 158.562 37.1543 158.571 37.541C158.581 37.9276 158.62 39.6867 158.6 40.0733C158.591 40.2086 158.6 40.3439 158.61 40.4792C158.62 40.5276 158.649 40.5759 158.726 40.5759C159.045 40.5566 159.345 40.5566 159.664 40.5469C159.78 40.5372 159.876 40.5082 159.924 40.3826C159.934 40.3149 159.905 38.5462 159.905 38.0822ZM166.688 38.8265C166.688 38.4882 166.64 37.57 166.649 37.3767C166.649 37.3477 166.669 37.309 166.678 37.309C166.698 37.309 166.736 37.3283 166.746 37.338C167.055 37.7439 168.505 40.5566 168.679 40.5662C168.727 40.5759 168.776 40.5759 168.824 40.5759C169.153 40.5566 169.442 40.5759 169.771 40.5759C170.109 40.5759 169.887 40.2473 169.829 40.1603C169.742 40.0346 168.592 37.9759 168.524 37.8503C168.331 37.5216 168.167 37.164 167.973 36.8451C167.954 36.8064 167.935 36.7484 167.944 36.7097C167.964 36.5938 167.993 36.4874 168.041 36.3811C168.273 35.9268 168.515 35.4629 168.795 35.028C169.104 34.535 169.278 34.2257 169.529 33.7811C169.587 33.6748 169.626 33.5588 169.665 33.4332C169.674 33.3848 169.636 33.3365 169.578 33.3365C169.394 33.3269 168.727 33.3365 168.515 33.3365C168.418 33.3365 168.321 33.3558 168.273 33.4428C168.147 33.6845 166.852 36.0525 166.727 36.2651C166.717 36.2845 166.688 36.2941 166.659 36.2941C166.659 36.2941 166.64 36.2651 166.64 36.2458C166.63 35.7045 166.727 33.9358 166.707 33.5782C166.698 33.3655 166.659 33.3462 166.446 33.3365C166.214 33.3269 165.895 33.3269 165.663 33.3269C165.451 33.3269 165.431 33.4428 165.402 33.5975C165.393 33.6265 165.393 34.535 165.393 34.941C165.393 35.5306 165.344 39.2227 165.412 40.3923C165.412 40.5082 165.441 40.5759 165.538 40.5759C165.799 40.5566 166.185 40.5759 166.446 40.5759C166.63 40.5759 166.659 40.5566 166.659 40.2473C166.659 39.8317 166.698 39.4547 166.698 38.9424C166.698 38.9038 166.688 38.8651 166.688 38.8265ZM176.737 38.0822C176.708 36.9804 176.718 35.8109 176.728 34.7187C176.728 34.3804 176.708 34.0131 176.708 33.6748C176.708 33.3075 176.563 33.3269 176.37 33.3172C176.09 33.3075 175.964 33.3075 175.684 33.3075C175.5 33.2979 175.423 33.3462 175.423 33.5298C175.423 34.477 175.394 37.1543 175.404 37.541C175.413 37.9276 175.452 39.6867 175.433 40.0733C175.423 40.2086 175.433 40.3439 175.442 40.4792C175.452 40.5276 175.481 40.5759 175.558 40.5759C175.877 40.5566 176.177 40.5566 176.496 40.5469C176.612 40.5372 176.708 40.5082 176.757 40.3826C176.766 40.3149 176.737 38.5462 176.737 38.0822ZM183.404 39.851C183.404 39.5997 183.404 38.0146 183.414 37.8889C183.423 37.8599 183.443 37.8019 183.481 37.8019C183.52 37.8019 183.539 37.8213 183.549 37.8503C183.936 38.6042 184.274 39.3581 184.622 40.0926C184.67 40.1989 184.777 40.5082 184.806 40.5372C184.844 40.5952 184.912 40.5759 184.97 40.5759L186.033 40.5856C186.159 40.5856 186.188 40.5082 186.159 40.4019C186.081 40.112 185.531 39.0874 185.405 38.8361C185.318 38.6428 184.738 37.5216 184.719 37.4346C184.699 37.396 184.844 37.3283 184.864 37.2993C185.328 36.8837 185.743 36.4584 185.83 35.8109C185.927 35.1729 185.782 34.477 185.366 33.9648C185.047 33.5878 184.632 33.3655 184.139 33.3365C183.839 33.3172 183.549 33.3462 183.25 33.3365C182.989 33.3269 182.805 33.3269 182.476 33.3269C182.322 33.3269 182.225 33.4138 182.215 33.5782V33.6941C182.196 34.4384 182.215 35.1826 182.225 35.9172C182.225 37.0384 182.206 39.996 182.206 40.4213C182.206 40.5469 182.225 40.5759 182.341 40.5759C182.409 40.5759 182.486 40.5856 182.554 40.5856C182.824 40.5856 182.989 40.5759 183.269 40.5759C183.481 40.5759 183.404 40.2279 183.404 39.851ZM183.404 36.0815L183.414 35.1053C183.423 34.9603 183.375 34.6703 183.51 34.564C183.694 34.4287 184.071 34.564 184.235 34.68C184.719 35.0086 184.68 35.8205 184.419 36.2748C184.293 36.4874 184.081 36.6131 183.839 36.6807C183.694 36.7194 183.423 36.7677 183.414 36.5358C183.414 36.3811 183.404 36.0815 183.404 36.0815ZM199.744 39.5224C199.753 39.822 199.753 40.1216 199.763 40.4213C199.763 40.5566 199.772 40.5759 199.908 40.5759H200.778C200.961 40.5759 200.923 40.2666 200.913 40.1023L200.942 34.6897C200.942 34.5447 200.99 34.4964 201.184 34.4964H202.034C202.237 34.4964 202.189 34.1484 202.189 33.9068C202.189 33.6941 202.266 33.3269 202.034 33.3269C201.87 33.3269 200.294 33.3269 199.647 33.3365C199.328 33.3365 199.067 33.3269 198.748 33.3269C198.506 33.3269 198.516 33.5202 198.516 33.9454C198.516 34.2161 198.506 34.4867 198.738 34.4867C198.874 34.4867 199.425 34.4867 199.579 34.4964C199.676 34.4964 199.744 34.5254 199.763 34.6317C199.763 34.6607 199.772 34.6897 199.772 34.7187C199.772 35.4146 199.724 38.6525 199.744 39.5224ZM208.537 40.4986C208.566 40.5082 208.653 40.5082 208.74 40.5082C208.933 40.5082 208.991 39.8123 209.01 39.6674C209.02 39.5514 209.049 39.5417 209.146 39.5224C209.629 39.4644 209.87 39.503 210.354 39.5127C210.46 39.5127 210.518 39.561 210.547 39.648L210.615 39.8703C210.673 40.0346 210.721 40.2376 210.779 40.4019C210.818 40.5179 210.827 40.5082 210.943 40.5082C211.098 40.5082 211.659 40.5082 211.823 40.4986C212.045 40.4986 211.89 40.0443 211.861 39.967C211.775 39.6963 211.755 39.4161 211.668 39.1454C211.63 39.0294 210.528 33.8005 210.479 33.5105C210.412 33.3365 210.47 33.3269 210.315 33.3269C209.986 33.3269 209.638 33.3462 209.3 33.3269C209.165 33.3269 209.175 33.3655 209.155 33.5105C209.136 33.6458 208.788 35.1826 208.653 35.8205C208.479 36.6228 208.324 37.396 208.131 38.1885C208.063 38.4688 207.599 40.4889 207.657 40.4986C207.686 40.5179 207.734 40.5082 207.773 40.5082C208.015 40.5082 208.237 40.5082 208.537 40.4986ZM209.803 38.3045H209.6C209.329 38.3045 209.32 38.3045 209.387 38.0242C209.435 37.8116 209.696 36.6614 209.754 36.3811C209.764 36.3618 209.783 36.3425 209.793 36.3425C209.812 36.3425 209.832 36.3618 209.841 36.3715C209.88 36.4874 209.919 36.7774 209.957 36.8934C210.044 37.2607 210.102 37.57 210.189 37.9662C210.276 38.3142 210.238 38.3142 210.064 38.3142C209.977 38.3142 209.89 38.3045 209.803 38.3045ZM218.528 33.6071C218.528 33.7425 218.557 38.3239 218.557 38.8845C218.557 39.0101 218.528 39.1358 218.461 39.2421C218.412 39.3387 218.316 39.4547 218.19 39.4547C218.055 39.4547 217.91 39.4064 217.774 39.3581C217.707 39.3194 217.542 39.2034 217.523 39.3581C217.494 39.6094 217.417 40.2473 217.388 40.4406C217.388 40.4889 217.513 40.5082 217.533 40.5179C217.784 40.5662 218.055 40.5856 218.306 40.5856C218.567 40.5952 218.828 40.5566 219.06 40.4213C219.456 40.1893 219.765 39.7447 219.765 39.2614L219.785 33.8874C219.785 33.8295 219.804 33.5202 219.765 33.4235C219.707 33.2689 219.495 33.3075 219.369 33.3075C219.156 33.3075 218.944 33.2882 218.741 33.3075C218.548 33.3269 218.528 33.3848 218.528 33.6071ZM226.123 40.4986C226.152 40.5082 226.239 40.5082 226.326 40.5082C226.519 40.5082 226.577 39.8123 226.596 39.6674C226.606 39.5514 226.635 39.5417 226.732 39.5224C227.215 39.4644 227.457 39.503 227.94 39.5127C228.046 39.5127 228.104 39.561 228.133 39.648L228.201 39.8703C228.259 40.0346 228.307 40.2376 228.365 40.4019C228.404 40.5179 228.413 40.5082 228.529 40.5082C228.684 40.5082 229.245 40.5082 229.409 40.4986C229.631 40.4986 229.477 40.0443 229.448 39.967C229.361 39.6963 229.341 39.4161 229.254 39.1454C229.216 39.0294 228.114 33.8005 228.066 33.5105C227.998 33.3365 228.056 33.3269 227.901 33.3269C227.573 33.3269 227.225 33.3462 226.886 33.3269C226.751 33.3269 226.761 33.3655 226.741 33.5105C226.722 33.6458 226.374 35.1826 226.239 35.8205C226.065 36.6228 225.91 37.396 225.717 38.1885C225.649 38.4688 225.185 40.4889 225.243 40.4986C225.272 40.5179 225.321 40.5082 225.359 40.5082C225.601 40.5082 225.823 40.5082 226.123 40.4986ZM227.389 38.3045H227.186C226.915 38.3045 226.906 38.3045 226.973 38.0242C227.022 37.8116 227.283 36.6614 227.341 36.3811C227.35 36.3618 227.37 36.3425 227.379 36.3425C227.399 36.3425 227.418 36.3618 227.428 36.3715C227.466 36.4874 227.505 36.7774 227.544 36.8934C227.631 37.2607 227.689 37.57 227.776 37.9662C227.863 38.3142 227.824 38.3142 227.65 38.3142C227.563 38.3142 227.476 38.3045 227.389 38.3045ZM236.375 33.3365C236.279 33.3365 236.182 33.3462 236.085 33.3462C235.94 33.3462 235.766 33.3172 235.737 33.5105C235.641 34.3321 235.554 35.2406 235.457 36.0622C235.293 37.4153 235.138 38.8071 234.984 40.1603C234.964 40.3439 234.945 40.5179 235.148 40.5566C235.457 40.5759 235.689 40.5759 235.95 40.5662C236.047 40.5759 236.153 40.5856 236.182 40.4696C236.201 40.4213 236.201 40.3729 236.201 40.3246C236.221 40.1023 236.511 37.3187 236.627 37.3187C236.81 37.3187 237.294 39.5804 237.526 40.4116C237.555 40.5276 237.613 40.5759 237.729 40.5662C237.97 40.5469 238.202 40.5662 238.444 40.5662C238.685 40.5662 238.637 40.4116 238.685 40.2086C238.743 39.9863 239.304 37.309 239.439 37.309C239.594 37.309 239.913 40.4116 239.942 40.4792C240 40.6146 240.164 40.5566 240.28 40.5566C240.454 40.5566 240.618 40.5759 240.841 40.5566C241.005 40.5372 241.169 40.5952 241.179 40.3826C241.179 40.3343 241.16 40.2859 241.15 40.2376C241.111 39.996 241.063 39.706 241.015 39.4644C240.947 38.9618 240.85 38.4688 240.783 37.9662C240.686 37.1737 240.589 36.3811 240.502 35.5886C240.435 34.912 240.338 34.1484 240.28 33.4718C240.261 33.2495 240.01 33.3269 239.855 33.3269H239.188C239.082 33.3269 239.033 33.5298 239.014 33.6361C238.956 33.9068 238.289 37.396 238.067 37.396C237.845 37.396 237.129 34.2064 237.004 33.5105C236.975 33.3558 236.868 33.3075 236.723 33.3075L236.375 33.3365Z" fill="#521262"/>
</g>
<defs>
<clipPath id="clip0_59_29">
<rect width="286" height="46.5551" fill="white"/>
</clipPath>
</defs>
</svg>
